<?xml version="1.0" standalone="no"?>
<!DOCTYPE svg PUBLIC "-//W3C//DTD SVG 20010904//EN"
 "http://www.w3.org/TR/2001/REC-SVG-20010904/DTD/svg10.dtd">
<svg version="1.0" xmlns="http://www.w3.org/2000/svg"
 width="800.000000pt" height="800.000000pt" viewBox="0 0 800.000000 800.000000"
 preserveAspectRatio="xMidYMid meet">
<metadata>
Created by potrace 1.14, written by Peter Selinger 2001-2017
</metadata>
<g transform="translate(0.000000,800.000000) scale(0.100000,-0.100000)"
fill="#000000" stroke="none">
<path d="M3582 5600 c-54 -13 -109 -58 -137 -113 l-25 -51 0 -412 0 -412 198
-4 197 -4 25 26 c13 14 74 79 134 145 61 66 144 156 186 200 42 44 107 114
145 155 82 89 70 69 -89 -155 -181 -255 -180 -254 -241 -341 l-57 -81 21 -41
c25 -49 28 -130 6 -171 -20 -39 -69 -78 -113 -91 -20 -5 -121 -10 -224 -10
l-188 0 0 -199 0 -199 49 -18 c27 -9 59 -26 72 -36 l24 -19 -60 6 c-83 9 -207
9 -287 0 l-68 -7 0 276 0 277 334 -1 c295 -1 337 1 360 15 35 23 51 75 36 120
-22 67 -1 65 -687 65 -405 0 -631 -4 -656 -11 -50 -14 -112 -70 -145 -133
l-27 -51 -3 -277 -3 -278 -590 0 c-324 0 -589 -2 -589 -5 0 -3 35 -56 77 -118
42 -62 99 -144 126 -183 l49 -72 -78 -113 c-144 -209 -174 -254 -174 -261 0
-5 317 -8 705 -8 l705 0 0 -248 c0 -136 4 -263 10 -282 12 -41 54 -80 87 -80
l23 0 0 289 c0 159 3 296 6 305 3 9 16 16 28 16 l21 0 0 -307 0 -308 598 -3
597 -2 0 310 0 310 138 0 137 0 -3 -310 -3 -310 598 2 598 3 0 308 0 307 698
0 c383 0 697 3 697 6 0 3 -57 89 -126 191 l-126 185 68 102 c38 55 71 103 74
106 3 3 29 41 59 85 l53 80 -958 7 c-528 4 -993 8 -1034 9 -41 1 -104 -2 -140
-5 -64 -6 -65 -6 -41 11 45 33 105 52 169 52 l62 1 0 781 c0 564 -3 793 -12
827 -17 68 -87 136 -157 151 -60 13 -1075 14 -1129 1z m-992 -1610 l0 -220
-25 0 -25 0 0 220 0 220 25 0 25 0 0 -220z m1828 -302 c8 -8 12 -45 12 -100 0
-48 4 -88 8 -88 5 0 19 10 31 22 32 29 113 37 156 14 46 -25 57 -64 62 -221 5
-133 4 -141 -16 -159 -17 -16 -25 -17 -45 -8 -23 10 -24 14 -28 145 -2 116 -6
138 -22 156 -28 31 -86 28 -117 -5 -22 -24 -24 -34 -27 -154 -4 -139 -11 -157
-56 -146 -13 3 -26 16 -30 28 -3 13 -6 128 -6 257 0 204 2 237 17 253 19 21
44 23 61 6z m-2330 -4 c18 -5 22 -13 22 -44 0 -32 -4 -39 -25 -44 -14 -4 -34
-2 -45 4 -26 14 -27 65 -2 79 20 12 21 12 50 5z m513 -4 c27 -15 26 -66 -2
-80 -11 -7 -32 -9 -45 -6 -20 5 -24 13 -24 45 0 29 5 41 18 44 28 8 33 7 53
-3z m-723 -30 c44 -25 57 -47 47 -80 -8 -26 -28 -25 -84 2 -49 24 -124 28
-159 9 -12 -6 -25 -23 -28 -37 -10 -40 26 -70 110 -89 123 -28 161 -55 176
-122 20 -86 -27 -158 -123 -189 -51 -16 -65 -16 -119 -5 -79 16 -137 56 -138
93 0 47 31 53 86 18 55 -34 125 -40 174 -15 25 13 30 22 30 50 0 44 -37 69
-112 79 -116 16 -171 70 -170 167 1 55 29 96 87 125 43 22 60 25 116 21 44 -3
80 -12 107 -27z m216 -116 c13 -13 16 -45 16 -189 0 -184 -5 -205 -50 -205
-34 0 -40 33 -40 206 0 142 3 170 17 186 20 22 37 23 57 2z m177 6 c10 -6 19
-17 19 -25 0 -20 10 -19 36 6 31 29 104 37 127 14 38 -37 6 -78 -52 -69 -83
13 -104 -22 -111 -185 -4 -103 -8 -126 -22 -135 -13 -8 -23 -8 -35 0 -16 10
-18 33 -21 195 -2 164 -1 185 15 196 20 16 20 16 44 3z m331 -7 c16 -14 18
-34 18 -177 0 -185 -4 -204 -36 -212 -50 -13 -54 3 -54 197 0 148 3 180 16
193 20 20 33 20 56 -1z m315 6 c65 -24 93 -78 52 -99 -17 -10 -27 -7 -58 14
-61 43 -125 32 -119 -20 2 -23 10 -31 43 -42 22 -8 60 -21 83 -29 120 -42 101
-191 -28 -224 -57 -15 -144 8 -183 47 -32 32 -33 45 -7 69 20 18 21 17 64 -13
34 -25 55 -32 89 -32 84 0 91 53 12 83 -108 42 -127 52 -146 75 -39 50 -16
136 43 165 38 19 114 22 155 6z m404 -6 c39 -15 42 -15 51 0 14 26 62 22 77
-6 18 -34 12 -347 -8 -370 -17 -21 -39 -22 -62 -1 -17 15 -22 15 -72 -6 -61
-25 -101 -23 -154 10 -97 59 -122 216 -51 320 46 66 134 88 219 53z m302 2 c9
-8 17 -20 19 -27 3 -9 10 -8 23 5 41 41 115 50 139 16 28 -40 0 -71 -55 -63
-82 13 -109 -35 -109 -194 0 -109 -7 -132 -39 -132 -8 0 -23 7 -33 17 -16 14
-18 34 -18 189 0 167 1 173 22 188 28 20 33 20 51 1z m493 -2 c34 -17 36 -17
45 0 10 17 35 22 63 11 23 -9 24 -375 1 -394 -18 -15 -65 -5 -65 15 0 11 -12
9 -52 -10 -63 -30 -90 -31 -144 -6 -103 47 -144 182 -90 297 22 46 57 82 96
97 32 12 111 6 146 -10z m1130 1 c36 -17 49 -42 39 -74 -8 -24 -41 -26 -69 -5
-24 18 -83 19 -114 1 -77 -42 -82 -170 -10 -220 29 -21 102 -20 133 0 33 22
67 4 63 -34 -7 -59 -150 -88 -232 -48 -111 55 -142 228 -59 326 20 23 51 49
67 56 43 18 141 17 182 -2z m393 -4 c127 -64 149 -251 43 -346 -15 -13 -51
-31 -80 -40 -195 -58 -339 166 -214 335 50 67 171 92 251 51z m267 -5 c23 -23
27 -24 41 -9 51 51 161 44 198 -13 l16 -24 43 36 c36 29 51 35 92 35 95 0 125
-46 132 -202 6 -147 -2 -196 -34 -204 -49 -12 -59 12 -62 159 -3 103 -7 136
-19 150 -23 25 -76 22 -110 -7 -28 -24 -28 -26 -31 -153 -4 -130 -10 -153 -43
-153 -41 0 -49 24 -49 159 0 114 -2 129 -20 149 -29 31 -83 30 -115 -3 -24
-23 -25 -30 -25 -149 0 -131 -8 -156 -49 -156 -37 0 -41 19 -41 201 0 148 3
180 16 193 21 22 31 20 60 -9z m-1045 -285 c13 -7 19 -21 19 -43 0 -40 -15
-57 -50 -57 -14 0 -31 5 -38 12 -17 17 -15 58 5 80 18 20 36 23 64 8z"/>
<path d="M3191 3444 c-86 -72 -44 -224 63 -224 77 0 124 64 110 150 -14 89
-107 129 -173 74z"/>
<path d="M3971 3435 c-27 -31 -31 -43 -31 -94 0 -51 4 -63 29 -90 24 -26 37
-31 74 -31 78 0 127 64 112 148 -11 62 -56 102 -116 102 -30 0 -43 -7 -68 -35z"/>
<path d="M5488 3452 c-52 -32 -71 -102 -44 -166 18 -44 52 -66 101 -66 68 0
115 51 115 125 0 95 -97 154 -172 107z"/>
<path d="M2795 4975 c-81 -31 -135 -109 -135 -195 0 -65 19 -110 67 -154 130
-124 344 -29 346 152 1 144 -144 247 -278 197z"/>
<path d="M2354 2766 c-3 -8 -4 -25 -2 -38 3 -22 6 -23 93 -23 l90 0 0 35 0 35
-88 3 c-69 2 -88 0 -93 -12z"/>
<path d="M4020 2740 l0 -40 75 0 75 0 0 40 0 40 -75 0 -75 0 0 -40z"/>
<path d="M5490 2740 l0 -40 73 0 c41 0 76 2 78 5 3 2 3 20 1 40 l-4 35 -74 0
-74 0 0 -40z"/>
</g>
</svg>
